{
    "asset" : {
        "generator" : "Khronos glTF Blender I/O v3.4.50",
        "version" : "2.0"
    },
    "extensionsUsed" : [
        "KHR_materials_specular",
        "KHR_materials_ior",
        "KHR_lights_punctual",
        "KHR_materials_clearcoat"
    ],
    "extensionsRequired" : [
        "KHR_lights_punctual"
    ],
    "extensions" : {
        "KHR_lights_punctual" : {
            "lights" : [
                {
                    "color" : [
                        0.2462013065814972,
                        0.3033178150653839,
                        1
                    ],
                    "intensity" : 0.7957747154594768,
                    "spot" : {
                        "innerConeAngle" : 1.2801634579534849,
                        "outerConeAngle" : 1.5060746669769287
                    },
                    "type" : "spot",
                    "name" : "Spot.001"
                },
                {
                    "color" : [
                        0.08023110777139664,
                        0.06847796589136124,
                        1
                    ],
                    "intensity" : 1.1936620731892151,
                    "spot" : {
                        "innerConeAngle" : 1.1327364365301662,
                        "outerConeAngle" : 1.3326311111450195
                    },
                    "type" : "spot",
                    "name" : "Spot.002"
                }
            ]
        }
    },
    "scene" : 0,
    "scenes" : [
        {
            "name" : "Scene",
            "nodes" : [
                0,
                1,
                2,
                3,
                4,
                5,
                6
            ]
        }
    ],
    "nodes" : [
        {
            "mesh" : 0,
            "name" : "Cube",
            "scale" : [
                3.6731250286102295,
                1.6179144382476807,
                4.3043365478515625
            ]
        },
        {
            "extensions" : {
                "KHR_lights_punctual" : {
                    "light" : 0
                }
            },
            "name" : "Spot",
            "rotation" : [
                -0.7071068286895752,
                0,
                0,
                0.7071068286895752
            ],
            "translation" : [
                0,
                0.9978346228599548,
                0
            ]
        },
        {
            "extensions" : {
                "KHR_lights_punctual" : {
                    "light" : 1
                }
            },
            "name" : "Spot.001",
            "rotation" : [
                0.043930549174547195,
                0.692762553691864,
                -0.7180690765380859,
                0.050269607454538345
            ],
            "translation" : [
                -1.4198670387268066,
                -1.0480221509933472,
                0.07029592245817184
            ]
        },
        {
            "mesh" : 1,
            "name" : "Cube.001",
            "scale" : [
                0.5325140953063965,
                0.5325140953063965,
                0.5076262354850769
            ],
            "translation" : [
                -0.07103118300437927,
                -0.11194808781147003,
                0.005713209509849548
            ]
        },
        {
            "mesh" : 2,
            "name" : "Cube.002",
            "scale" : [
                0.5325140953063965,
                0.5325140953063965,
                0.5076262354850769
            ],
            "translation" : [
                -0.07103118300437927,
                -0.11194808781147003,
                0.005713209509849548
            ]
        },
        {
            "mesh" : 3,
            "name" : "Cylinder.004",
            "rotation" : [
                0,
                0,
                0.7071068286895752,
                0.7071068286895752
            ],
            "scale" : [
                0.031041419133543968,
                0.007190388161689043,
                0.019319497048854828
            ],
            "translation" : [
                -0.6667505502700806,
                -0.4945088326931,
                0.3252216577529907
            ]
        },
        {
            "mesh" : 4,
            "name" : "Cube.003",
            "scale" : [
                0.5325140953063965,
                0.5325140953063965,
                0.5076262354850769
            ],
            "translation" : [
                -0.07103118300437927,
                -0.11194808781147003,
                0.005713209509849548
            ]
        }
    ],
    "materials" : [
        {
            "doubleSided" : true,
            "extensions" : {
                "KHR_materials_specular" : {
                    "specularColorFactor" : [
                        0.36648247359654085,
                        0.36648247359654085,
                        0.36648247359654085
                    ]
                },
                "KHR_materials_ior" : {
                    "ior" : 1.4500000476837158
                }
            },
            "name" : "Material.004",
            "pbrMetallicRoughness" : {
                "baseColorFactor" : [
                    0.18329337239265442,
                    0.18329337239265442,
                    0.18329337239265442,
                    1
                ],
                "metallicFactor" : 0,
                "roughnessFactor" : 0.7409090995788574
            }
        },
        {
            "doubleSided" : true,
            "extensions" : {
                "KHR_materials_specular" : {
                    "specularColorFactor" : [
                        1.703065995055731,
                        1.703065995055731,
                        1.703065995055731
                    ]
                },
                "KHR_materials_ior" : {
                    "ior" : 1.4500000476837158
                }
            },
            "name" : "Material.005",
            "pbrMetallicRoughness" : {
                "baseColorFactor" : [
                    0.11330380290746689,
                    0.11330380290746689,
                    0.11330380290746689,
                    1
                ],
                "metallicFactor" : 0,
                "metallicRoughnessTexture" : {
                    "index" : 0
                }
            }
        },
        {
            "doubleSided" : true,
            "extensions" : {
                "KHR_materials_clearcoat" : {
                    "clearcoatFactor" : 0.6181818246841431,
                    "clearcoatRoughnessFactor" : 0
                }
            },
            "name" : "Material.001",
            "pbrMetallicRoughness" : {
                "metallicFactor" : 0,
                "roughnessFactor" : 0.5
            }
        },
        {
            "doubleSided" : true,
            "name" : "Material.003",
            "pbrMetallicRoughness" : {
                "baseColorFactor" : [
                    0.7060726284980774,
                    0.7060726284980774,
                    0.7060726284980774,
                    1
                ],
                "roughnessFactor" : 0.5
            }
        },
        {
            "doubleSided" : true,
            "name" : "Material",
            "pbrMetallicRoughness" : {
                "baseColorFactor" : [
                    0.2519213557243347,
                    0.2519213557243347,
                    0.2519213557243347,
                    1
                ],
                "metallicFactor" : 0.4681818187236786,
                "roughnessFactor" : 0.5
            }
        }
    ],
    "meshes" : [
        {
            "name" : "Cube.001",
            "primitives" : [
                {
                    "attributes" : {
                        "POSITION" : 0,
                        "TEXCOORD_0" : 1,
                        "NORMAL" : 2
                    },
                    "indices" : 3,
                    "material" : 0
                }
            ]
        },
        {
            "name" : "Cube.002",
            "primitives" : [
                {
                    "attributes" : {
                        "POSITION" : 4,
                        "TEXCOORD_0" : 5,
                        "NORMAL" : 6
                    },
                    "indices" : 7,
                    "material" : 1
                }
            ]
        },
        {
            "name" : "Cube.003",
            "primitives" : [
                {
                    "attributes" : {
                        "POSITION" : 8,
                        "TEXCOORD_0" : 9,
                        "NORMAL" : 10
                    },
                    "indices" : 11,
                    "material" : 2
                }
            ]
        },
        {
            "name" : "Cylinder.004",
            "primitives" : [
                {
                    "attributes" : {
                        "POSITION" : 12,
                        "TEXCOORD_0" : 13,
                        "NORMAL" : 14
                    },
                    "indices" : 15,
                    "material" : 3
                }
            ]
        },
        {
            "name" : "Cube.004",
            "primitives" : [
                {
                    "attributes" : {
                        "POSITION" : 16,
                        "TEXCOORD_0" : 17,
                        "NORMAL" : 18
                    },
                    "indices" : 19,
                    "material" : 4
                }
            ]
        }
    ],
    "textures" : [
        {
            "sampler" : 0,
            "source" : 0
        }
    ],
    "images" : [
        {
            "bufferView" : 8,
            "mimeType" : "image/png",
            "name" : "scratches"
        }
    ],
    "accessors" : [
        {
            "bufferView" : 0,
            "componentType" : 5126,
            "count" : 56,
            "max" : [
                1.090000033378601,
                1.090000033378601,
                1.090000033378601
            ],
            "min" : [
                -1,
                -1.090000033378601,
                -1.090000033378601
            ],
            "type" : "VEC3"
        },
        {
            "bufferView" : 1,
            "componentType" : 5126,
            "count" : 56,
            "type" : "VEC2"
        },
        {
            "bufferView" : 2,
            "componentType" : 5126,
            "count" : 56,
            "type" : "VEC3"
        },
        {
            "bufferView" : 3,
            "componentType" : 5123,
            "count" : 84,
            "type" : "SCALAR"
        },
        {
            "bufferView" : 4,
            "componentType" : 5126,
            "count" : 568,
            "max" : [
                1,
                1,
                1
            ],
            "min" : [
                -1.1176363229751587,
                -1,
                -1
            ],
            "type" : "VEC3"
        },
        {
            "bufferView" : 5,
            "componentType" : 5126,
            "count" : 568,
            "type" : "VEC2"
        },
        {
            "bufferView" : 6,
            "componentType" : 5126,
            "count" : 568,
            "type" : "VEC3"
        },
        {
            "bufferView" : 7,
            "componentType" : 5123,
            "count" : 852,
            "type" : "SCALAR"
        },
        {
            "bufferView" : 9,
            "componentType" : 5126,
            "count" : 4,
            "max" : [
                -0.996999979019165,
                0.791789174079895,
                0.8331105709075928
            ],
            "min" : [
                -0.996999979019165,
                -0.437563419342041,
                -0.8465327620506287
            ],
            "type" : "VEC3"
        },
        {
            "bufferView" : 10,
            "componentType" : 5126,
            "count" : 4,
            "type" : "VEC2"
        },
        {
            "bufferView" : 11,
            "componentType" : 5126,
            "count" : 4,
            "type" : "VEC3"
        },
        {
            "bufferView" : 12,
            "componentType" : 5123,
            "count" : 6,
            "type" : "SCALAR"
        },
        {
            "bufferView" : 13,
            "componentType" : 5126,
            "count" : 3836,
            "max" : [
                0.9903934597969055,
                1,
                0.9903926849365234
            ],
            "min" : [
                -0.9903926849365234,
                -1.0001220703125,
                -17.528528213500977
            ],
            "type" : "VEC3"
        },
        {
            "bufferView" : 14,
            "componentType" : 5126,
            "count" : 3836,
            "type" : "VEC2"
        },
        {
            "bufferView" : 15,
            "componentType" : 5126,
            "count" : 3836,
            "type" : "VEC3"
        },
        {
            "bufferView" : 16,
            "componentType" : 5123,
            "count" : 5700,
            "type" : "SCALAR"
        },
        {
            "bufferView" : 17,
            "componentType" : 5126,
            "count" : 4,
            "max" : [
                -1.0924272537231445,
                -0.6500776410102844,
                -0.18764260411262512
            ],
            "min" : [
                -1.1027679443359375,
                -0.7712804675102234,
                -0.8541245460510254
            ],
            "type" : "VEC3"
        },
        {
            "bufferView" : 18,
            "componentType" : 5126,
            "count" : 4,
            "type" : "VEC2"
        },
        {
            "bufferView" : 19,
            "componentType" : 5126,
            "count" : 4,
            "type" : "VEC3"
        },
        {
            "bufferView" : 20,
            "componentType" : 5123,
            "count" : 6,
            "type" : "SCALAR"
        }
    ],
    "bufferViews" : [
        {
            "buffer" : 0,
            "byteLength" : 672,
            "byteOffset" : 0,
            "target" : 34962
        },
        {
            "buffer" : 0,
            "byteLength" : 448,
            "byteOffset" : 672,
            "target" : 34962
        },
        {
            "buffer" : 0,
            "byteLength" : 672,
            "byteOffset" : 1120,
            "target" : 34962
        },
        {
            "buffer" : 0,
            "byteLength" : 168,
            "byteOffset" : 1792,
            "target" : 34963
        },
        {
            "buffer" : 0,
            "byteLength" : 6816,
            "byteOffset" : 1960,
            "target" : 34962
        },
        {
            "buffer" : 0,
            "byteLength" : 4544,
            "byteOffset" : 8776,
            "target" : 34962
        },
        {
            "buffer" : 0,
            "byteLength" : 6816,
            "byteOffset" : 13320,
            "target" : 34962
        },
        {
            "buffer" : 0,
            "byteLength" : 1704,
            "byteOffset" : 20136,
            "target" : 34963
        },
        {
            "buffer" : 0,
            "byteLength" : 1195847,
            "byteOffset" : 21840
        },
        {
            "buffer" : 0,
            "byteLength" : 48,
            "byteOffset" : 1217688,
            "target" : 34962
        },
        {
            "buffer" : 0,
            "byteLength" : 32,
            "byteOffset" : 1217736,
            "target" : 34962
        },
        {
            "buffer" : 0,
            "byteLength" : 48,
            "byteOffset" : 1217768,
            "target" : 34962
        },
        {
            "buffer" : 0,
            "byteLength" : 12,
            "byteOffset" : 1217816,
            "target" : 34963
        },
        {
            "buffer" : 0,
            "byteLength" : 46032,
            "byteOffset" : 1217828,
            "target" : 34962
        },
        {
            "buffer" : 0,
            "byteLength" : 30688,
            "byteOffset" : 1263860,
            "target" : 34962
        },
        {
            "buffer" : 0,
            "byteLength" : 46032,
            "byteOffset" : 1294548,
            "target" : 34962
        },
        {
            "buffer" : 0,
            "byteLength" : 11400,
            "byteOffset" : 1340580,
            "target" : 34963
        },
        {
            "buffer" : 0,
            "byteLength" : 48,
            "byteOffset" : 1351980,
            "target" : 34962
        },
        {
            "buffer" : 0,
            "byteLength" : 32,
            "byteOffset" : 1352028,
            "target" : 34962
        },
        {
            "buffer" : 0,
            "byteLength" : 48,
            "byteOffset" : 1352060,
            "target" : 34962
        },
        {
            "buffer" : 0,
            "byteLength" : 12,
            "byteOffset" : 1352108,
            "target" : 34963
        }
    ],
    "samplers" : [
        {
            "magFilter" : 9729,
            "minFilter" : 9987
        }
    ],
    "buffers" : [
        {
            "byteLength" : 1352120,
            "uri" : "data:application/octet-stream;base64,"
        }
    ]
}
