{
    "asset" : {
        "generator" : "Khronos glTF Blender I/O v3.4.50",
        "version" : "2.0"
    },
    "extensionsUsed" : [
        "KHR_lights_punctual"
    ],
    "extensionsRequired" : [
        "KHR_lights_punctual"
    ],
    "extensions" : {
        "KHR_lights_punctual" : {
            "lights" : [
                {
                    "color" : [
                        1,
                        0.9576399922370911,
                        0.8369218111038208
                    ],
                    "intensity" : 15.46190660699636,
                    "type" : "point",
                    "name" : "Light"
                }
            ]
        }
    },
    "scene" : 0,
    "scenes" : [
        {
            "name" : "Scene",
            "nodes" : [
                0,
                1,
                2,
                3,
                4,
                5,
                6
            ]
        }
    ],
    "nodes" : [
        {
            "extensions" : {
                "KHR_lights_punctual" : {
                    "light" : 0
                }
            },
            "name" : "Light",
            "rotation" : [
                -0.28416627645492554,
                0.7269423007965088,
                0.34203392267227173,
                0.5232754945755005
            ],
            "translation" : [
                4.076245307922363,
                10.805896759033203,
                -1.0054539442062378
            ]
        },
        {
            "mesh" : 0,
            "name" : "Sphere",
            "scale" : [
                0.4486733376979828,
                0.4486733376979828,
                0.4486733376979828
            ],
            "translation" : [
                0,
                3.610272169113159,
                0
            ]
        },
        {
            "mesh" : 1,
            "name" : "Plane",
            "scale" : [
                4.846839904785156,
                4.846839904785156,
                4.846839904785156
            ],
            "translation" : [
                0,
                5.665674209594727,
                0
            ]
        },
        {
            "mesh" : 2,
            "name" : "Sphere.001",
            "scale" : [
                0.4486733376979828,
                0.4486733376979828,
                0.4486733376979828
            ],
            "translation" : [
                0,
                3.610272169113159,
                -5.172138214111328
            ]
        },
        {
            "mesh" : 3,
            "name" : "Plane.001",
            "scale" : [
                4.846839904785156,
                4.846839904785156,
                4.846839904785156
            ],
            "translation" : [
                0,
                5.665674209594727,
                -5.172138214111328
            ]
        },
        {
            "mesh" : 4,
            "name" : "Sphere.002",
            "scale" : [
                0.4486733376979828,
                0.4486733376979828,
                0.4486733376979828
            ],
            "translation" : [
                4.562204837799072,
                3.610272169113159,
                0
            ]
        },
        {
            "mesh" : 5,
            "name" : "Plane.002",
            "scale" : [
                4.846839904785156,
                4.846839904785156,
                4.846839904785156
            ],
            "translation" : [
                4.562204837799072,
                5.665674209594727,
                0
            ]
        }
    ],
    "meshes" : [
        {
            "name" : "Sphere",
            "primitives" : [
                {
                    "attributes" : {
                        "POSITION" : 0,
                        "TEXCOORD_0" : 1,
                        "NORMAL" : 2
                    },
                    "indices" : 3
                }
            ]
        },
        {
            "name" : "Mesh",
            "primitives" : [
                {
                    "attributes" : {
                        "POSITION" : 4,
                        "TEXCOORD_0" : 5,
                        "NORMAL" : 6
                    },
                    "indices" : 7
                }
            ]
        },
        {
            "name" : "Sphere.001",
            "primitives" : [
                {
                    "attributes" : {
                        "POSITION" : 8,
                        "TEXCOORD_0" : 9,
                        "NORMAL" : 10
                    },
                    "indices" : 3
                }
            ]
        },
        {
            "name" : "Mesh",
            "primitives" : [
                {
                    "attributes" : {
                        "POSITION" : 11,
                        "TEXCOORD_0" : 12,
                        "NORMAL" : 13
                    },
                    "indices" : 7
                }
            ]
        },
        {
            "name" : "Sphere.002",
            "primitives" : [
                {
                    "attributes" : {
                        "POSITION" : 14,
                        "TEXCOORD_0" : 15,
                        "NORMAL" : 16
                    },
                    "indices" : 3
                }
            ]
        },
        {
            "name" : "Mesh",
            "primitives" : [
                {
                    "attributes" : {
                        "POSITION" : 17,
                        "TEXCOORD_0" : 18,
                        "NORMAL" : 19
                    },
                    "indices" : 7
                }
            ]
        }
    ],
    "accessors" : [
        {
            "bufferView" : 0,
            "componentType" : 5126,
            "count" : 4746,
            "max" : [
                1.0057508945465088,
                0.9778672456741333,
                0.9872307181358337
            ],
            "min" : [
                -1.0057507753372192,
                -1.3650203943252563,
                -1.049304485321045
            ],
            "type" : "VEC3"
        },
        {
            "bufferView" : 1,
            "componentType" : 5126,
            "count" : 4746,
            "type" : "VEC2"
        },
        {
            "bufferView" : 2,
            "componentType" : 5126,
            "count" : 4746,
            "type" : "VEC3"
        },
        {
            "bufferView" : 3,
            "componentType" : 5123,
            "count" : 23808,
            "type" : "SCALAR"
        },
        {
            "bufferView" : 4,
            "componentType" : 5126,
            "count" : 15998,
            "max" : [
                0.3680872619152069,
                -0.33876484632492065,
                0.3856738805770874
            ],
            "min" : [
                -0.4749675989151001,
                -1.7256122827529907,
                -0.45771458745002747
            ],
            "type" : "VEC3"
        },
        {
            "bufferView" : 5,
            "componentType" : 5126,
            "count" : 15998,
            "type" : "VEC2"
        },
        {
            "bufferView" : 6,
            "componentType" : 5126,
            "count" : 15998,
            "type" : "VEC3"
        },
        {
            "bufferView" : 7,
            "componentType" : 5123,
            "count" : 92256,
            "type" : "SCALAR"
        },
        {
            "bufferView" : 8,
            "componentType" : 5126,
            "count" : 4746,
            "max" : [
                1.0057508945465088,
                0.9778672456741333,
                0.9872307181358337
            ],
            "min" : [
                -1.0057507753372192,
                -1.3650203943252563,
                -1.049304485321045
            ],
            "type" : "VEC3"
        },
        {
            "bufferView" : 9,
            "componentType" : 5126,
            "count" : 4746,
            "type" : "VEC2"
        },
        {
            "bufferView" : 10,
            "componentType" : 5126,
            "count" : 4746,
            "type" : "VEC3"
        },
        {
            "bufferView" : 11,
            "componentType" : 5126,
            "count" : 15998,
            "max" : [
                0.4108121693134308,
                -0.33788907527923584,
                0.4714357256889343
            ],
            "min" : [
                -0.4394398033618927,
                -1.6788991689682007,
                -0.4557119309902191
            ],
            "type" : "VEC3"
        },
        {
            "bufferView" : 12,
            "componentType" : 5126,
            "count" : 15998,
            "type" : "VEC2"
        },
        {
            "bufferView" : 13,
            "componentType" : 5126,
            "count" : 15998,
            "type" : "VEC3"
        },
        {
            "bufferView" : 14,
            "componentType" : 5126,
            "count" : 4746,
            "max" : [
                1.0057508945465088,
                0.9778672456741333,
                0.9872307181358337
            ],
            "min" : [
                -1.0057507753372192,
                -1.3650203943252563,
                -1.049304485321045
            ],
            "type" : "VEC3"
        },
        {
            "bufferView" : 15,
            "componentType" : 5126,
            "count" : 4746,
            "type" : "VEC2"
        },
        {
            "bufferView" : 16,
            "componentType" : 5126,
            "count" : 4746,
            "type" : "VEC3"
        },
        {
            "bufferView" : 17,
            "componentType" : 5126,
            "count" : 15998,
            "max" : [
                0.3897383511066437,
                -0.33818039298057556,
                0.41088786721229553
            ],
            "min" : [
                -0.41554486751556396,
                -1.6920158863067627,
                -0.45422476530075073
            ],
            "type" : "VEC3"
        },
        {
            "bufferView" : 18,
            "componentType" : 5126,
            "count" : 15998,
            "type" : "VEC2"
        },
        {
            "bufferView" : 19,
            "componentType" : 5126,
            "count" : 15998,
            "type" : "VEC3"
        }
    ],
    "bufferViews" : [
        {
            "buffer" : 0,
            "byteLength" : 56952,
            "byteOffset" : 0,
            "target" : 34962
        },
        {
            "buffer" : 0,
            "byteLength" : 37968,
            "byteOffset" : 56952,
            "target" : 34962
        },
        {
            "buffer" : 0,
            "byteLength" : 56952,
            "byteOffset" : 94920,
            "target" : 34962
        },
        {
            "buffer" : 0,
            "byteLength" : 47616,
            "byteOffset" : 151872,
            "target" : 34963
        },
        {
            "buffer" : 0,
            "byteLength" : 191976,
            "byteOffset" : 199488,
            "target" : 34962
        },
        {
            "buffer" : 0,
            "byteLength" : 127984,
            "byteOffset" : 391464,
            "target" : 34962
        },
        {
            "buffer" : 0,
            "byteLength" : 191976,
            "byteOffset" : 519448,
            "target" : 34962
        },
        {
            "buffer" : 0,
            "byteLength" : 184512,
            "byteOffset" : 711424,
            "target" : 34963
        },
        {
            "buffer" : 0,
            "byteLength" : 56952,
            "byteOffset" : 895936,
            "target" : 34962
        },
        {
            "buffer" : 0,
            "byteLength" : 37968,
            "byteOffset" : 952888,
            "target" : 34962
        },
        {
            "buffer" : 0,
            "byteLength" : 56952,
            "byteOffset" : 990856,
            "target" : 34962
        },
        {
            "buffer" : 0,
            "byteLength" : 191976,
            "byteOffset" : 1047808,
            "target" : 34962
        },
        {
            "buffer" : 0,
            "byteLength" : 127984,
            "byteOffset" : 1239784,
            "target" : 34962
        },
        {
            "buffer" : 0,
            "byteLength" : 191976,
            "byteOffset" : 1367768,
            "target" : 34962
        },
        {
            "buffer" : 0,
            "byteLength" : 56952,
            "byteOffset" : 1559744,
            "target" : 34962
        },
        {
            "buffer" : 0,
            "byteLength" : 37968,
            "byteOffset" : 1616696,
            "target" : 34962
        },
        {
            "buffer" : 0,
            "byteLength" : 56952,
            "byteOffset" : 1654664,
            "target" : 34962
        },
        {
            "buffer" : 0,
            "byteLength" : 191976,
            "byteOffset" : 1711616,
            "target" : 34962
        },
        {
            "buffer" : 0,
            "byteLength" : 127984,
            "byteOffset" : 1903592,
            "target" : 34962
        },
        {
            "buffer" : 0,
            "byteLength" : 191976,
            "byteOffset" : 2031576,
            "target" : 34962
        }
    ],
    "buffers" : [
        {
            "byteLength" : 2223552,
            "uri" : "data:application/octet-stream;base64,"
        }
    ]
}
