{
    "asset" : {
        "generator" : "Khronos glTF Blender I/O v3.4.50",
        "version" : "2.0"
    },
    "extensionsUsed" : [
        "KHR_lights_punctual"
    ],
    "extensionsRequired" : [
        "KHR_lights_punctual"
    ],
    "extensions" : {
        "KHR_lights_punctual" : {
            "lights" : [
                {
                    "color" : [
                        0.5442647933959961,
                        0.5030525326728821,
                        1
                    ],
                    "intensity" : 3.127394571042951,
                    "spot" : {
                        "innerConeAngle" : 0.3337942263919169,
                        "outerConeAngle" : 0.39269909262657166
                    },
                    "type" : "spot",
                    "name" : "Spot"
                },
                {
                    "color" : [
                        0.7491532564163208,
                        0.5807843208312988,
                        1
                    ],
                    "intensity" : 2.0292255244216655,
                    "spot" : {
                        "innerConeAngle" : 0.6614724530088729,
                        "outerConeAngle" : 0.7782028913497925
                    },
                    "type" : "spot",
                    "name" : "Spot.001"
                },
                {
                    "color" : [
                        0.2027699202299118,
                        0.19659629464149475,
                        1
                    ],
                    "intensity" : 2.244084606526535,
                    "type" : "point",
                    "name" : "Point"
                },
                {
                    "color" : [
                        0.18230435252189636,
                        0.11348628252744675,
                        1
                    ],
                    "intensity" : 1.2573239897131805,
                    "type" : "point",
                    "name" : "Point.001"
                },
                {
                    "color" : [
                        0.11640633642673492,
                        0.07394903153181076,
                        1
                    ],
                    "intensity" : 0.9708451376823635,
                    "type" : "point",
                    "name" : "Point.002"
                },
                {
                    "color" : [
                        0.08276922255754471,
                        0.08631051331758499,
                        1
                    ],
                    "intensity" : 1.2573239897131805,
                    "type" : "point",
                    "name" : "Point.003"
                },
                {
                    "color" : [
                        0.08276922255754471,
                        0.08631051331758499,
                        1
                    ],
                    "intensity" : 1.2573239897131805,
                    "type" : "point",
                    "name" : "Point.005"
                }
            ]
        }
    },
    "scene" : 0,
    "scenes" : [
        {
            "name" : "Scene",
            "nodes" : [
                0,
                1,
                2,
                3,
                4,
                5,
                6,
                7
            ]
        }
    ],
    "nodes" : [
        {
            "mesh" : 0,
            "name" : "uploads_files_947468_cavediver.001",
            "rotation" : [
                0.70710688829422,
                0,
                0,
                0.7071066498756409
            ]
        },
        {
            "extensions" : {
                "KHR_lights_punctual" : {
                    "light" : 0
                }
            },
            "name" : "Spot",
            "rotation" : [
                0.30602923035621643,
                0.6420725584030151,
                -0.6373031735420227,
                0.2965362071990967
            ],
            "translation" : [
                1.4712005853652954,
                8.350698471069336,
                0.056010544300079346
            ]
        },
        {
            "extensions" : {
                "KHR_lights_punctual" : {
                    "light" : 1
                }
            },
            "name" : "Spot.001",
            "rotation" : [
                0.20663245022296906,
                -0.1253071427345276,
                0.1253071427345276,
                0.9622365832328796
            ],
            "translation" : [
                0,
                0,
                15.32502555847168
            ]
        },
        {
            "extensions" : {
                "KHR_lights_punctual" : {
                    "light" : 2
                }
            },
            "name" : "Point",
            "rotation" : [
                -0.7071068286895752,
                0,
                0,
                0.7071068286895752
            ],
            "translation" : [
                0.1589798480272293,
                10.470405578613281,
                0
            ]
        },
        {
            "extensions" : {
                "KHR_lights_punctual" : {
                    "light" : 3
                }
            },
            "name" : "Point.001",
            "rotation" : [
                -0.7071068286895752,
                0,
                0,
                0.7071068286895752
            ],
            "translation" : [
                0.39184823632240295,
                15.331460952758789,
                0
            ]
        },
        {
            "extensions" : {
                "KHR_lights_punctual" : {
                    "light" : 4
                }
            },
            "name" : "Point.002",
            "rotation" : [
                -0.7071068286895752,
                0,
                0,
                0.7071068286895752
            ],
            "translation" : [
                0,
                6.308345794677734,
                0
            ]
        },
        {
            "extensions" : {
                "KHR_lights_punctual" : {
                    "light" : 5
                }
            },
            "name" : "Point.003",
            "rotation" : [
                -0.7071068286895752,
                0,
                0,
                0.7071068286895752
            ],
            "translation" : [
                -3.1210787296295166,
                8.337069511413574,
                0.05771427974104881
            ]
        },
        {
            "extensions" : {
                "KHR_lights_punctual" : {
                    "light" : 6
                }
            },
            "name" : "Point.004",
            "rotation" : [
                -0.7071068286895752,
                0,
                0,
                0.7071068286895752
            ],
            "translation" : [
                3.3615009784698486,
                8.337069511413574,
                0.38274088501930237
            ]
        }
    ],
    "materials" : [
        {
            "alphaCutoff" : 0.14779874682426453,
            "alphaMode" : "MASK",
            "doubleSided" : true,
            "name" : "Material.002",
            "pbrMetallicRoughness" : {}
        }
    ],
    "meshes" : [
        {
            "name" : "uploads_files_947468_cavediver.001",
            "primitives" : [
                {
                    "attributes" : {
                        "POSITION" : 0,
                        "TEXCOORD_0" : 1,
                        "NORMAL" : 2
                    },
                    "indices" : 3,
                    "material" : 0
                },
                {
                    "attributes" : {
                        "POSITION" : 4,
                        "TEXCOORD_0" : 5,
                        "NORMAL" : 6
                    },
                    "indices" : 7,
                    "material" : 0
                },
                {
                    "attributes" : {
                        "POSITION" : 8,
                        "TEXCOORD_0" : 9,
                        "NORMAL" : 10
                    },
                    "indices" : 11,
                    "material" : 0
                },
                {
                    "attributes" : {
                        "POSITION" : 12,
                        "TEXCOORD_0" : 13,
                        "NORMAL" : 14
                    },
                    "indices" : 15,
                    "material" : 0
                },
                {
                    "attributes" : {
                        "POSITION" : 16,
                        "TEXCOORD_0" : 17,
                        "NORMAL" : 18
                    },
                    "indices" : 19,
                    "material" : 0
                },
                {
                    "attributes" : {
                        "POSITION" : 20,
                        "TEXCOORD_0" : 21,
                        "NORMAL" : 22
                    },
                    "indices" : 23,
                    "material" : 0
                },
                {
                    "attributes" : {
                        "POSITION" : 24,
                        "TEXCOORD_0" : 25,
                        "NORMAL" : 26
                    },
                    "indices" : 27,
                    "material" : 0
                },
                {
                    "attributes" : {
                        "POSITION" : 28,
                        "TEXCOORD_0" : 29,
                        "NORMAL" : 30
                    },
                    "indices" : 31,
                    "material" : 0
                },
                {
                    "attributes" : {
                        "POSITION" : 32,
                        "TEXCOORD_0" : 33,
                        "NORMAL" : 34
                    },
                    "indices" : 35,
                    "material" : 0
                }
            ]
        }
    ],
    "accessors" : [
        {
            "bufferView" : 0,
            "componentType" : 5126,
            "count" : 11515,
            "max" : [
                3.5827999114990234,
                1.4196970462799072,
                -0.37426817417144775
            ],
            "min" : [
                -3.2767999172210693,
                -2.0833935737609863,
                -16.505599975585938
            ],
            "type" : "VEC3"
        },
        {
            "bufferView" : 1,
            "componentType" : 5126,
            "count" : 11515,
            "type" : "VEC2"
        },
        {
            "bufferView" : 2,
            "componentType" : 5126,
            "count" : 11515,
            "type" : "VEC3"
        },
        {
            "bufferView" : 3,
            "componentType" : 5123,
            "count" : 48180,
            "type" : "SCALAR"
        },
        {
            "bufferView" : 4,
            "componentType" : 5126,
            "count" : 1037,
            "max" : [
                1.1327999830245972,
                0.444599986076355,
                -14.474100112915039
            ],
            "min" : [
                -0.38179999589920044,
                -1.2450000047683716,
                -16.538000106811523
            ],
            "type" : "VEC3"
        },
        {
            "bufferView" : 5,
            "componentType" : 5126,
            "count" : 1037,
            "type" : "VEC2"
        },
        {
            "bufferView" : 6,
            "componentType" : 5126,
            "count" : 1037,
            "type" : "VEC3"
        },
        {
            "bufferView" : 7,
            "componentType" : 5123,
            "count" : 3150,
            "type" : "SCALAR"
        },
        {
            "bufferView" : 8,
            "componentType" : 5126,
            "count" : 1374,
            "max" : [
                0.774988055229187,
                0.4674919545650482,
                -15.243241310119629
            ],
            "min" : [
                -0.11493448913097382,
                0.211823970079422,
                -15.558673858642578
            ],
            "type" : "VEC3"
        },
        {
            "bufferView" : 9,
            "componentType" : 5126,
            "count" : 1374,
            "type" : "VEC2"
        },
        {
            "bufferView" : 10,
            "componentType" : 5126,
            "count" : 1374,
            "type" : "VEC3"
        },
        {
            "bufferView" : 11,
            "componentType" : 5123,
            "count" : 6120,
            "type" : "SCALAR"
        },
        {
            "bufferView" : 12,
            "componentType" : 5126,
            "count" : 178,
            "max" : [
                0.8914210200309753,
                0.5430923104286194,
                -15.426627159118652
            ],
            "min" : [
                -0.22200961410999298,
                0.24589519202709198,
                -15.590377807617188
            ],
            "type" : "VEC3"
        },
        {
            "bufferView" : 13,
            "componentType" : 5126,
            "count" : 178,
            "type" : "VEC2"
        },
        {
            "bufferView" : 14,
            "componentType" : 5126,
            "count" : 178,
            "type" : "VEC3"
        },
        {
            "bufferView" : 15,
            "componentType" : 5123,
            "count" : 576,
            "type" : "SCALAR"
        },
        {
            "bufferView" : 16,
            "componentType" : 5126,
            "count" : 290,
            "max" : [
                0.8015999794006348,
                0.5123474597930908,
                -15.290568351745605
            ],
            "min" : [
                -0.15000000596046448,
                0.3650999963283539,
                -15.472967147827148
            ],
            "type" : "VEC3"
        },
        {
            "bufferView" : 17,
            "componentType" : 5126,
            "count" : 290,
            "type" : "VEC2"
        },
        {
            "bufferView" : 18,
            "componentType" : 5126,
            "count" : 290,
            "type" : "VEC3"
        },
        {
            "bufferView" : 19,
            "componentType" : 5123,
            "count" : 1104,
            "type" : "SCALAR"
        },
        {
            "bufferView" : 20,
            "componentType" : 5126,
            "count" : 6119,
            "max" : [
                0.6077954769134521,
                0.45855748653411865,
                -14.469599723815918
            ],
            "min" : [
                0.028228232637047768,
                -0.2475999891757965,
                -14.946267127990723
            ],
            "type" : "VEC3"
        },
        {
            "bufferView" : 21,
            "componentType" : 5126,
            "count" : 6119,
            "type" : "VEC2"
        },
        {
            "bufferView" : 22,
            "componentType" : 5126,
            "count" : 6119,
            "type" : "VEC3"
        },
        {
            "bufferView" : 23,
            "componentType" : 5123,
            "count" : 21360,
            "type" : "SCALAR"
        },
        {
            "bufferView" : 24,
            "componentType" : 5126,
            "count" : 357,
            "max" : [
                0.5300999879837036,
                0.36616450548171997,
                -14.615300178527832
            ],
            "min" : [
                0.10850000381469727,
                -0.24739998579025269,
                -14.864903450012207
            ],
            "type" : "VEC3"
        },
        {
            "bufferView" : 25,
            "componentType" : 5126,
            "count" : 357,
            "type" : "VEC2"
        },
        {
            "bufferView" : 26,
            "componentType" : 5126,
            "count" : 357,
            "type" : "VEC3"
        },
        {
            "bufferView" : 27,
            "componentType" : 5123,
            "count" : 1344,
            "type" : "SCALAR"
        },
        {
            "bufferView" : 28,
            "componentType" : 5126,
            "count" : 2863,
            "max" : [
                0.2966291010379791,
                2.581022024154663,
                0.15238848328590393
            ],
            "min" : [
                -0.8408681750297546,
                -2.1374943256378174,
                -0.8974394798278809
            ],
            "type" : "VEC3"
        },
        {
            "bufferView" : 29,
            "componentType" : 5126,
            "count" : 2863,
            "type" : "VEC2"
        },
        {
            "bufferView" : 30,
            "componentType" : 5126,
            "count" : 2863,
            "type" : "VEC3"
        },
        {
            "bufferView" : 31,
            "componentType" : 5123,
            "count" : 8376,
            "type" : "SCALAR"
        },
        {
            "bufferView" : 32,
            "componentType" : 5126,
            "count" : 3221,
            "max" : [
                3.489500045776367,
                1.5018017292022705,
                -0.8505679368972778
            ],
            "min" : [
                -3.1923999786376953,
                -2.018893241882324,
                -14.225099563598633
            ],
            "type" : "VEC3"
        },
        {
            "bufferView" : 33,
            "componentType" : 5126,
            "count" : 3221,
            "type" : "VEC2"
        },
        {
            "bufferView" : 34,
            "componentType" : 5126,
            "count" : 3221,
            "type" : "VEC3"
        },
        {
            "bufferView" : 35,
            "componentType" : 5123,
            "count" : 13938,
            "type" : "SCALAR"
        }
    ],
    "bufferViews" : [
        {
            "buffer" : 0,
            "byteLength" : 138180,
            "byteOffset" : 0,
            "target" : 34962
        },
        {
            "buffer" : 0,
            "byteLength" : 92120,
            "byteOffset" : 138180,
            "target" : 34962
        },
        {
            "buffer" : 0,
            "byteLength" : 138180,
            "byteOffset" : 230300,
            "target" : 34962
        },
        {
            "buffer" : 0,
            "byteLength" : 96360,
            "byteOffset" : 368480,
            "target" : 34963
        },
        {
            "buffer" : 0,
            "byteLength" : 12444,
            "byteOffset" : 464840,
            "target" : 34962
        },
        {
            "buffer" : 0,
            "byteLength" : 8296,
            "byteOffset" : 477284,
            "target" : 34962
        },
        {
            "buffer" : 0,
            "byteLength" : 12444,
            "byteOffset" : 485580,
            "target" : 34962
        },
        {
            "buffer" : 0,
            "byteLength" : 6300,
            "byteOffset" : 498024,
            "target" : 34963
        },
        {
            "buffer" : 0,
            "byteLength" : 16488,
            "byteOffset" : 504324,
            "target" : 34962
        },
        {
            "buffer" : 0,
            "byteLength" : 10992,
            "byteOffset" : 520812,
            "target" : 34962
        },
        {
            "buffer" : 0,
            "byteLength" : 16488,
            "byteOffset" : 531804,
            "target" : 34962
        },
        {
            "buffer" : 0,
            "byteLength" : 12240,
            "byteOffset" : 548292,
            "target" : 34963
        },
        {
            "buffer" : 0,
            "byteLength" : 2136,
            "byteOffset" : 560532,
            "target" : 34962
        },
        {
            "buffer" : 0,
            "byteLength" : 1424,
            "byteOffset" : 562668,
            "target" : 34962
        },
        {
            "buffer" : 0,
            "byteLength" : 2136,
            "byteOffset" : 564092,
            "target" : 34962
        },
        {
            "buffer" : 0,
            "byteLength" : 1152,
            "byteOffset" : 566228,
            "target" : 34963
        },
        {
            "buffer" : 0,
            "byteLength" : 3480,
            "byteOffset" : 567380,
            "target" : 34962
        },
        {
            "buffer" : 0,
            "byteLength" : 2320,
            "byteOffset" : 570860,
            "target" : 34962
        },
        {
            "buffer" : 0,
            "byteLength" : 3480,
            "byteOffset" : 573180,
            "target" : 34962
        },
        {
            "buffer" : 0,
            "byteLength" : 2208,
            "byteOffset" : 576660,
            "target" : 34963
        },
        {
            "buffer" : 0,
            "byteLength" : 73428,
            "byteOffset" : 578868,
            "target" : 34962
        },
        {
            "buffer" : 0,
            "byteLength" : 48952,
            "byteOffset" : 652296,
            "target" : 34962
        },
        {
            "buffer" : 0,
            "byteLength" : 73428,
            "byteOffset" : 701248,
            "target" : 34962
        },
        {
            "buffer" : 0,
            "byteLength" : 42720,
            "byteOffset" : 774676,
            "target" : 34963
        },
        {
            "buffer" : 0,
            "byteLength" : 4284,
            "byteOffset" : 817396,
            "target" : 34962
        },
        {
            "buffer" : 0,
            "byteLength" : 2856,
            "byteOffset" : 821680,
            "target" : 34962
        },
        {
            "buffer" : 0,
            "byteLength" : 4284,
            "byteOffset" : 824536,
            "target" : 34962
        },
        {
            "buffer" : 0,
            "byteLength" : 2688,
            "byteOffset" : 828820,
            "target" : 34963
        },
        {
            "buffer" : 0,
            "byteLength" : 34356,
            "byteOffset" : 831508,
            "target" : 34962
        },
        {
            "buffer" : 0,
            "byteLength" : 22904,
            "byteOffset" : 865864,
            "target" : 34962
        },
        {
            "buffer" : 0,
            "byteLength" : 34356,
            "byteOffset" : 888768,
            "target" : 34962
        },
        {
            "buffer" : 0,
            "byteLength" : 16752,
            "byteOffset" : 923124,
            "target" : 34963
        },
        {
            "buffer" : 0,
            "byteLength" : 38652,
            "byteOffset" : 939876,
            "target" : 34962
        },
        {
            "buffer" : 0,
            "byteLength" : 25768,
            "byteOffset" : 978528,
            "target" : 34962
        },
        {
            "buffer" : 0,
            "byteLength" : 38652,
            "byteOffset" : 1004296,
            "target" : 34962
        },
        {
            "buffer" : 0,
            "byteLength" : 27876,
            "byteOffset" : 1042948,
            "target" : 34963
        }
    ],
    "buffers" : [
        {
            "byteLength" : 1070824,
            "uri" : "data:application/octet-stream;base64,"
        }
    ]
}
